SplineFontDB: 3.0
FontName: skey
FullName: skey
FamilyName: skey
Weight: Book
Copyright: Copyright (c) 2019, Ray,,,
Version: 001.000
ItalicAngle: 0
UnderlinePosition: -152
UnderlineWidth: 51
Ascent: 819
Descent: 205
InvalidEm: 0
sfntRevision: 0x00010000
LayerCount: 2
Layer: 0 1 "Back" 1
Layer: 1 1 "Fore" 0
XUID: [1021 424 -1502659883 1303874]
StyleMap: 0x0000
FSType: 0
OS2Version: 4
OS2_WeightWidthSlopeOnly: 0
OS2_UseTypoMetrics: 1
CreationTime: 1560159013
ModificationTime: 1560170413
PfmFamily: 17
TTFWeight: 400
TTFWidth: 5
LineGap: 92
VLineGap: 0
Panose: 2 0 5 3 0 0 0 0 0 0
OS2TypoAscent: 819
OS2TypoAOffset: 0
OS2TypoDescent: -205
OS2TypoDOffset: 0
OS2TypoLinegap: 92
OS2WinAscent: 749
OS2WinAOffset: 0
OS2WinDescent: 15
OS2WinDOffset: 0
HheadAscent: 749
HheadAOffset: 0
HheadDescent: -15
HheadDOffset: 0
OS2SubXSize: 665
OS2SubYSize: 716
OS2SubXOff: 0
OS2SubYOff: 143
OS2SupXSize: 665
OS2SupYSize: 716
OS2SupXOff: 0
OS2SupYOff: 491
OS2StrikeYSize: 51
OS2StrikeYPos: 265
OS2CapHeight: 710
OS2XHeight: 737
OS2Vendor: 'PfEd'
OS2CodePages: 00000001.00000000
OS2UnicodeRanges: 00000001.00000000.00000000.00000000
MarkAttachClasses: 1
DEI: 91125
ShortTable: cvt  2
  34
  648
EndShort
ShortTable: maxp 16
  1
  0
  33
  74
  3
  0
  0
  2
  0
  1
  1
  0
  64
  46
  0
  0
EndShort
LangName: 1033 "" "" "Regular" "FontForge 2.0 : skey : 10-6-2019"
GaspTable: 1 65535 2 0
Encoding: UnicodeBmp
UnicodeInterp: none
NameList: AGL For New Fonts
DisplaySize: -48
AntiAlias: 1
FitToEm: 0
WinInfo: 0 27 9
BeginChars: 65539 33

StartChar: .notdef
Encoding: 65536 -1 0
Width: 374
Flags: W
LayerCount: 2
Fore
SplineSet
34 0 m 1,0,-1
 34 682 l 1,1,-1
 306 682 l 1,2,-1
 306 0 l 1,3,-1
 34 0 l 1,0,-1
68 34 m 1,4,-1
 272 34 l 1,5,-1
 272 648 l 1,6,-1
 68 648 l 1,7,-1
 68 34 l 1,4,-1
EndSplineSet
EndChar

StartChar: exclam
Encoding: 33 33 3
Width: 889
Flags: W
LayerCount: 2
Fore
SplineSet
561 289 m 0,0,1
 561 353 561 353 543 406 c 0,2,3
 525 458 525 458 490 496 c 0,4,5
 457 532 457 532 410 553 c 128,-1,6
 363 574 363 574 304 574 c 0,7,8
 246 574 246 574 200 553 c 0,9,10
 149 530 149 530 118 496 c 0,11,12
 85 460 85 460 65 406 c 0,13,14
 46 355 46 355 46 289 c 0,15,16
 46 228 46 228 66 174 c 0,17,18
 86 122 86 122 120 84 c 0,19,20
 151 50 151 50 202 27 c 0,21,22
 246 7 246 7 304 7 c 0,23,24
 394 7 394 7 458 56 c 1,25,26
 487 34 487 34 529 21 c 0,27,28
 565 10 565 10 611 10 c 0,29,30
 677 10 677 10 720 30 c 128,-1,31
 763 50 763 50 785 85 c 0,32,33
 809 123 809 123 816 168 c 128,-1,34
 823 213 823 213 823 270 c 2,35,-1
 823 749 l 1,36,-1
 671 749 l 1,37,-1
 671 278 l 2,38,39
 671 207 671 207 658 174 c 0,40,41
 645 140 645 140 601 140 c 0,42,43
 564 140 564 140 536 159 c 1,44,45
 561 218 561 218 561 289 c 0,0,1
406 289 m 0,46,47
 406 218 406 218 379 178 c 256,48,49
 352 138 352 138 304 138 c 0,50,51
 249 138 249 138 225 178 c 0,52,53
 202 217 202 217 202 289 c 0,54,55
 202 359 202 359 229 401 c 128,-1,56
 256 443 256 443 304 443 c 256,57,58
 352 443 352 443 379 401 c 128,-1,59
 406 359 406 359 406 289 c 0,46,47
EndSplineSet
EndChar

StartChar: period
Encoding: 46 46 4
Width: 251
Flags: W
LayerCount: 2
Fore
SplineSet
221 419 m 256,0,1
 221 373 221 373 192 349 c 0,2,3
 164 325 164 325 126 325 c 256,4,5
 88 325 88 325 60 349 c 0,6,7
 31 373 31 373 31 419 c 128,-1,8
 31 465 31 465 60 489 c 0,9,10
 88 513 88 513 126 513 c 256,11,12
 164 513 164 513 192 489 c 0,13,14
 221 465 221 465 221 419 c 256,0,1
EndSplineSet
EndChar

StartChar: question
Encoding: 63 63 5
Width: 889
Flags: W
LayerCount: 2
Fore
SplineSet
561 454 m 0,0,1
 561 391 561 391 543 338 c 0,2,3
 525 286 525 286 490 248 c 0,4,5
 456 211 456 211 410 190 c 128,-1,6
 364 169 364 169 304 169 c 0,7,8
 246 169 246 169 200 190 c 0,9,10
 151 212 151 212 118 248 c 128,-1,11
 85 284 85 284 65 338 c 0,12,13
 46 389 46 389 46 454 c 0,14,15
 46 516 46 516 66 570 c 0,16,17
 85 621 85 621 120 659 c 0,18,19
 151 693 151 693 202 716 c 0,20,21
 248 737 248 737 304 737 c 0,22,23
 394 737 394 737 458 688 c 1,24,25
 485 708 485 708 529 722 c 0,26,27
 568 734 568 734 611 734 c 0,28,29
 677 734 677 734 720 714 c 0,30,31
 762 694 762 694 785 658 c 0,32,33
 809 620 809 620 816 575 c 128,-1,34
 823 530 823 530 823 474 c 2,35,-1
 823 -6 l 1,36,-1
 671 -6 l 1,37,-1
 671 465 l 2,38,39
 671 536 671 536 658 569 c 0,40,41
 644 604 644 604 601 604 c 0,42,43
 565 604 565 604 536 584 c 1,44,45
 561 525 561 525 561 454 c 0,0,1
406 454 m 256,46,47
 406 524 406 524 379 565 c 256,48,49
 352 606 352 606 304 606 c 0,50,51
 249 606 249 606 225 565 c 0,52,53
 202 526 202 526 202 454 c 0,54,55
 202 384 202 384 229 342 c 0,56,57
 255 301 255 301 304 301 c 128,-1,58
 353 301 353 301 379 342 c 0,59,60
 406 384 406 384 406 454 c 256,46,47
EndSplineSet
EndChar

StartChar: A
Encoding: 65 65 6
Width: 323
Flags: W
LayerCount: 2
Fore
SplineSet
82 710 m 1,0,-1
 242 710 l 1,1,-1
 242 0 l 1,2,-1
 82 0 l 1,3,-1
 82 710 l 1,0,-1
EndSplineSet
EndChar

StartChar: B
Encoding: 66 66 7
Width: 663
Flags: W
LayerCount: 2
Fore
SplineSet
272 -14 m 0,0,1
 190 -14 190 -14 130 2 c 0,2,3
 69 18 69 18 35 39 c 1,4,-1
 79 167 l 1,5,6
 83 165 83 165 93 161 c 128,-1,7
 103 157 103 157 109 154 c 0,8,9
 123 147 123 147 146 141 c 0,10,11
 160 137 160 137 196 131 c 0,12,13
 220 127 220 127 258 127 c 0,14,15
 313 127 313 127 352 145 c 0,16,17
 390 162 390 162 415 194 c 0,18,19
 439 224 439 224 450 267 c 0,20,21
 461 311 461 311 461 358 c 0,22,23
 461 418 461 418 444 463 c 0,24,25
 428 506 428 506 401 533 c 128,-1,26
 374 560 374 560 338 572 c 0,27,28
 299 585 299 585 266 585 c 0,29,30
 214 585 214 585 167 572 c 0,31,32
 121 559 121 559 91 543 c 1,33,-1
 45 672 l 1,34,35
 50 675 50 675 72 686 c 0,36,37
 88 694 88 694 118 704 c 0,38,39
 145 713 145 713 182 719 c 0,40,41
 226 726 226 726 264 726 c 0,42,43
 340 726 340 726 409 701 c 0,44,45
 475 677 475 677 523 629 c 0,46,47
 573 579 573 579 599 513 c 0,48,49
 627 441 627 441 627 355 c 0,50,51
 627 179 627 179 536 82 c 0,52,53
 446 -14 446 -14 272 -14 c 0,0,1
EndSplineSet
EndChar

StartChar: C
Encoding: 67 67 8
Width: 576
Flags: W
LayerCount: 2
Fore
SplineSet
547 572 m 1,0,-1
 547 710 l 1,1,-1
 73 710 l 1,2,-1
 73 0 l 1,3,-1
 233 0 l 1,4,-1
 233 572 l 1,5,-1
 547 572 l 1,0,-1
EndSplineSet
EndChar

StartChar: D
Encoding: 68 68 9
Width: 739
Flags: W
LayerCount: 2
Fore
SplineSet
293 710 m 1,0,1
 252 624 252 624 210 524 c 0,2,3
 166 420 166 420 132 334 c 0,4,5
 108 275 108 275 64 154 c 0,6,7
 36 78 36 78 10 0 c 1,8,-1
 186 0 l 1,9,10
 193 21 193 21 208 65.5 c 128,-1,11
 223 110 223 110 231 133 c 0,12,13
 263 227 263 227 280 274 c 0,14,15
 284 286 284 286 302 335.5 c 128,-1,16
 320 385 320 385 329 410 c 0,17,18
 358 487 358 487 373 521 c 1,19,20
 388 485 388 485 416 410 c 0,21,22
 425 385 425 385 443 335.5 c 128,-1,23
 461 286 461 286 465 274 c 0,24,25
 499 180 499 180 515 133 c 0,26,27
 523 109 523 109 537.5 64.5 c 128,-1,28
 552 20 552 20 559 0 c 1,29,-1
 729 0 l 1,30,31
 722 20 722 20 713.5 44.5 c 128,-1,32
 705 69 705 69 693.5 101.5 c 128,-1,33
 682 134 682 134 675 154 c 0,34,35
 649 229 649 229 607 334 c 0,36,37
 573 420 573 420 529 524 c 0,38,39
 487 624 487 624 446 710 c 1,40,-1
 293 710 l 1,0,1
EndSplineSet
EndChar

StartChar: E
Encoding: 69 69 10
Width: 477
Flags: W
LayerCount: 2
Fore
SplineSet
411 462 m 1,0,-1
 411 303 l 1,1,-1
 193 303 l 1,2,-1
 193 462 l 1,3,-1
 411 462 l 1,0,-1
82 710 m 1,4,-1
 242 710 l 1,5,-1
 242 0 l 1,6,-1
 82 0 l 1,7,-1
 82 710 l 1,4,-1
EndSplineSet
EndChar

StartChar: F
Encoding: 70 70 11
Width: 663
Flags: W
LayerCount: 2
Fore
SplineSet
406 -14 m 0,0,1
 232 -14 232 -14 142 82 c 0,2,3
 51 179 51 179 51 355 c 0,4,5
 51 441 51 441 79 513 c 0,6,7
 105 579 105 579 155 629 c 0,8,9
 203 677 203 677 269 701 c 0,10,11
 338 726 338 726 414 726 c 0,12,13
 452 726 452 726 496 719 c 0,14,15
 533 713 533 713 560 704 c 0,16,17
 590 694 590 694 606 686 c 0,18,19
 628 675 628 675 633 672 c 1,20,-1
 587 543 l 1,21,22
 558 559 558 559 510 572 c 0,23,24
 463 585 463 585 412 585 c 0,25,26
 378 585 378 585 339 572 c 0,27,28
 304 560 304 560 277 533 c 0,29,30
 249 505 249 505 233 463 c 128,-1,31
 217 421 217 421 217 358 c 0,32,33
 217 311 217 311 228 267 c 0,34,35
 239 224 239 224 263 194 c 0,36,37
 288 162 288 162 326 145 c 0,38,39
 365 127 365 127 420 127 c 0,40,41
 458 127 458 127 482 131 c 0,42,43
 516 137 516 137 531 141 c 0,44,45
 556 148 556 148 569 154 c 0,46,47
 575 157 575 157 585 161 c 128,-1,48
 595 165 595 165 599 167 c 1,49,-1
 643 39 l 1,50,51
 609 18 609 18 548 2 c 0,52,53
 488 -14 488 -14 406 -14 c 0,0,1
EndSplineSet
EndChar

StartChar: G
Encoding: 71 71 12
Width: 754
Flags: W
LayerCount: 2
Fore
SplineSet
242 130 m 1,0,1
 250 129 250 129 268 129 c 0,2,3
 272 129 272 129 284 128.5 c 128,-1,4
 296 128 296 128 303 128 c 0,5,6
 422 128 422 128 481 188 c 0,7,8
 539 247 539 247 539 355 c 0,9,10
 539 466 539 466 483 524 c 128,-1,11
 427 582 427 582 308 582 c 0,12,13
 303 582 303 582 291.5 581.5 c 128,-1,14
 280 581 280 581 274 581 c 0,15,16
 262 581 262 581 242 579 c 1,17,-1
 242 130 l 1,0,1
703 355 m 0,18,19
 703 263 703 263 675 195 c 128,-1,20
 647 127 647 127 593 81 c 128,-1,21
 539 35 539 35 465 13 c 0,22,23
 390 -9 390 -9 295 -9 c 0,24,25
 252 -9 252 -9 195 -6 c 0,26,27
 137 -3 137 -3 82 9 c 1,28,-1
 82 700 l 1,29,30
 141 711 141 711 197 714 c 0,31,32
 277 718 277 718 300 718 c 0,33,34
 392 718 392 718 465 697 c 0,35,36
 542 675 542 675 593 633 c 0,37,38
 647 589 647 589 675 520 c 0,39,40
 703 452 703 452 703 355 c 0,18,19
EndSplineSet
EndChar

StartChar: H
Encoding: 72 72 13
Width: 691
Flags: W
LayerCount: 2
Fore
SplineSet
489 0 m 1,0,1
 458 61 458 61 424 120 c 0,2,3
 381 194 381 194 343 245 c 1,4,5
 336 237 336 237 307 194 c 0,6,7
 290 170 290 170 263 124 c 0,8,9
 231 70 231 70 221 53 c 0,10,11
 202 19 202 19 193 0 c 1,12,-1
 10 0 l 1,13,14
 55 82 55 82 115 174 c 0,15,16
 174 263 174 263 249 368 c 1,17,-1
 20 710 l 1,18,-1
 214 710 l 1,19,-1
 352 488 l 1,20,-1
 487 710 l 1,21,-1
 670 710 l 1,22,-1
 444 366 l 1,23,24
 530 255 530 255 589 159 c 0,25,26
 640 76 640 76 681 0 c 1,27,-1
 489 0 l 1,0,1
EndSplineSet
EndChar

StartChar: I
Encoding: 73 73 14
Width: 475
Flags: W
LayerCount: 2
Fore
SplineSet
442 182 m 4,0,1
 442 134 442 134 427 96 c 132,-1,2
 412 58 412 58 386 32 c 4,3,4
 361 7 361 7 323 -8 c 4,5,6
 286 -23 286 -23 242 -23 c 4,7,8
 199 -23 199 -23 162 -8 c 4,9,10
 124 7 124 7 98 32 c 4,11,12
 73 55 73 55 57 96 c 4,13,14
 42 134 42 134 42 182 c 4,15,16
 42 231 42 231 57 270 c 132,-1,17
 72 309 72 309 98 335 c 132,-1,18
 124 361 124 361 162 376 c 4,19,20
 197 390 197 390 242 390 c 4,21,22
 288 390 288 390 323 376 c 4,23,24
 362 360 362 360 386 335 c 4,25,26
 413 306 413 306 427 270 c 4,27,28
 442 231 442 231 442 182 c 4,0,1
309 182 m 4,29,30
 309 221 309 221 292 244 c 132,-1,31
 275 267 275 267 242 267 c 4,32,33
 211 267 211 267 193 244 c 4,34,35
 175 222 175 222 175 182 c 4,36,37
 175 146 175 146 193 123 c 4,38,39
 211 101 211 101 242 101 c 4,40,41
 276 101 276 101 292 123 c 4,42,43
 309 146 309 146 309 182 c 4,29,30
442 522 m 0,44,45
 442 474 442 474 427 436 c 128,-1,46
 412 398 412 398 386 372 c 0,47,48
 361 347 361 347 323 332 c 0,49,50
 286 317 286 317 242 317 c 0,51,52
 199 317 199 317 162 332 c 0,53,54
 124 347 124 347 98 372 c 0,55,56
 73 395 73 395 57 436 c 0,57,58
 42 474 42 474 42 522 c 0,59,60
 42 571 42 571 57 610 c 128,-1,61
 72 649 72 649 98 675 c 128,-1,62
 124 701 124 701 162 716 c 0,63,64
 197 730 197 730 242 730 c 0,65,66
 288 730 288 730 323 716 c 0,67,68
 362 700 362 700 386 675 c 0,69,70
 413 646 413 646 427 610 c 0,71,72
 442 571 442 571 442 522 c 0,44,45
309 522 m 0,73,74
 309 561 309 561 292 584 c 128,-1,75
 275 607 275 607 242 607 c 0,76,77
 211 607 211 607 193 584 c 0,78,79
 175 562 175 562 175 522 c 0,80,81
 175 486 175 486 193 463 c 0,82,83
 211 441 211 441 242 441 c 0,84,85
 276 441 276 441 292 463 c 0,86,87
 309 486 309 486 309 522 c 0,73,74
EndSplineSet
EndChar

StartChar: J
Encoding: 74 74 15
Width: 581
Flags: W
LayerCount: 2
Fore
SplineSet
310 -15 m 0,0,1
 339 -15 339 -15 369 -12 c 0,2,3
 391 -10 391 -10 428 -2 c 0,4,5
 460 5 460 5 480 11 c 0,6,7
 499 17 499 17 517 25 c 1,8,-1
 487 152 l 1,9,10
 461 141 461 141 419 127 c 0,11,12
 382 115 382 115 316 115 c 0,13,14
 245 115 245 115 213 141 c 0,15,16
 180 168 180 168 180 213 c 0,17,18
 180 240 180 240 192 260 c 0,19,20
 203 278 203 278 224 290 c 0,21,22
 246 303 246 303 273 307 c 0,23,24
 298 311 298 311 333 311 c 2,25,-1
 392 311 l 1,26,-1
 392 434 l 1,27,-1
 325 434 l 2,28,29
 300 434 300 434 281 438 c 128,-1,30
 262 442 262 442 244 452 c 0,31,32
 228 461 228 461 218 479 c 128,-1,33
 208 497 208 497 208 521 c 0,34,35
 208 539 208 539 216 555 c 0,36,37
 224 570 224 570 237 579 c 0,38,39
 249 587 249 587 267 592 c 128,-1,40
 285 597 285 597 301 597 c 0,41,42
 346 597 346 597 382 584 c 0,43,44
 423 569 423 569 451 551 c 1,45,-1
 505 663 l 2,46,47
 503 664 503 664 466 684 c 0,48,49
 441 697 441 697 418 705 c 0,50,51
 391 714 391 714 361 720 c 128,-1,52
 331 726 331 726 297 726 c 0,53,54
 234 726 234 726 189 711 c 128,-1,55
 144 696 144 696 114 669 c 0,56,57
 86 643 86 643 70 606 c 0,58,59
 55 570 55 570 55 526 c 0,60,61
 55 484 55 484 79 445 c 0,62,63
 104 405 104 405 142 385 c 1,64,65
 87 363 87 363 57 318 c 128,-1,66
 27 273 27 273 27 211 c 0,67,68
 27 161 27 161 43 120 c 0,69,70
 59 80 59 80 94 49 c 128,-1,71
 129 18 129 18 183 2 c 0,72,73
 239 -15 239 -15 310 -15 c 0,0,1
EndSplineSet
EndChar

StartChar: K
Encoding: 75 75 16
Width: 739
Flags: W
LayerCount: 2
Fore
SplineSet
293 0 m 1,0,1
 248 94 248 94 210 185 c 0,2,3
 173 273 173 273 132 376 c 0,4,5
 108 435 108 435 64 556 c 0,6,7
 36 632 36 632 10 710 c 1,8,-1
 186 710 l 1,9,10
 193 689 193 689 208 644.5 c 128,-1,11
 223 600 223 600 231 577 c 0,12,13
 269 466 269 466 280 435 c 0,14,15
 323 316 323 316 329 300 c 0,16,17
 360 217 360 217 373 188 c 1,18,19
 385 216 385 216 416 300 c 0,20,21
 422 316 422 316 465 435 c 0,22,23
 493 513 493 513 515 577 c 0,24,25
 523 601 523 601 537.5 645.5 c 128,-1,26
 552 690 552 690 559 710 c 1,27,-1
 729 710 l 1,28,29
 722 690 722 690 713.5 665.5 c 128,-1,30
 705 641 705 641 693.5 608.5 c 128,-1,31
 682 576 682 576 675 556 c 0,32,33
 649 481 649 481 607 376 c 0,34,35
 566 273 566 273 529 185 c 0,36,37
 491 94 491 94 446 0 c 1,38,-1
 293 0 l 1,0,1
EndSplineSet
EndChar

StartChar: L
Encoding: 76 76 17
Width: 628
Flags: W
LayerCount: 2
Fore
SplineSet
608 0 m 1,0,-1
 608 136 l 1,1,-1
 394 136 l 1,2,-1
 394 710 l 1,3,-1
 234 710 l 1,4,-1
 234 136 l 1,5,-1
 20 136 l 1,6,-1
 20 0 l 1,7,-1
 608 0 l 1,0,-1
EndSplineSet
EndChar

StartChar: M
Encoding: 77 77 18
Width: 723
Flags: W
LayerCount: 2
Fore
SplineSet
348 710 m 0,0,1
 258 710 258 710 204 689 c 0,2,3
 151 668 151 668 114 630 c 0,4,5
 79 594 79 594 62 541 c 128,-1,6
 45 488 45 488 45 427 c 2,7,-1
 45 -14 l 1,8,-1
 205 -14 l 1,9,-1
 205 414 l 2,10,11
 205 454 205 454 215 487 c 0,12,13
 223 515 223 515 241 536 c 0,14,15
 257 555 257 555 282 563 c 0,16,17
 308 571 308 571 350 571 c 0,18,19
 384 571 384 571 423 562 c 128,-1,20
 462 553 462 553 479 536 c 0,21,22
 515 500 515 500 515 414 c 2,23,-1
 515 -14 l 1,24,-1
 675 -14 l 1,25,-1
 675 427 l 2,26,27
 675 490 675 490 657 542 c 0,28,29
 639 595 639 595 604 631 c 0,30,31
 568 668 568 668 513 689 c 128,-1,32
 458 710 458 710 348 710 c 0,0,1
EndSplineSet
EndChar

StartChar: N
Encoding: 78 78 19
Width: 624
Flags: W
LayerCount: 2
Fore
SplineSet
583 599 m 1,0,1
 547 561 547 561 505 511 c 0,2,3
 460 457 460 457 412 394 c 0,4,5
 352 315 352 315 316 263 c 0,6,7
 270 196 270 196 232 134 c 1,8,-1
 594 134 l 1,9,-1
 594 0 l 1,10,-1
 36 0 l 1,11,-1
 36 95 l 1,12,13
 64 146 64 146 106 211 c 256,14,15
 148 276 148 276 193 340 c 0,16,17
 244 413 244 413 284 466 c 0,18,19
 327 523 327 523 371 575 c 1,20,-1
 52 575 l 1,21,-1
 52 710 l 1,22,-1
 583 710 l 1,23,-1
 583 599 l 1,0,1
EndSplineSet
EndChar

StartChar: O
Encoding: 79 79 20
Width: 467
Flags: W
LayerCount: 2
Fore
SplineSet
434 518 m 0,0,1
 434 470 434 470 419 432 c 128,-1,2
 404 394 404 394 378 368 c 0,3,4
 353 343 353 343 315 328 c 0,5,6
 278 313 278 313 234 313 c 0,7,8
 191 313 191 313 154 328 c 0,9,10
 116 343 116 343 90 368 c 0,11,12
 65 391 65 391 49 432 c 0,13,14
 34 470 34 470 34 518 c 0,15,16
 34 567 34 567 49 606 c 128,-1,17
 64 645 64 645 90 671 c 128,-1,18
 116 697 116 697 154 712 c 0,19,20
 189 726 189 726 234 726 c 0,21,22
 280 726 280 726 315 712 c 0,23,24
 354 696 354 696 378 671 c 0,25,26
 405 642 405 642 419 606 c 0,27,28
 434 567 434 567 434 518 c 0,0,1
301 518 m 0,29,30
 301 557 301 557 284 580 c 128,-1,31
 267 603 267 603 234 603 c 0,32,33
 203 603 203 603 185 580 c 0,34,35
 167 558 167 558 167 518 c 0,36,37
 167 482 167 482 185 459 c 0,38,39
 203 437 203 437 234 437 c 0,40,41
 268 437 268 437 284 459 c 0,42,43
 301 482 301 482 301 518 c 0,29,30
EndSplineSet
EndChar

StartChar: P
Encoding: 80 80 21
Width: 624
Flags: W
LayerCount: 2
Fore
SplineSet
169 0 m 1,0,1
 177 14 177 14 237.5 125.5 c 128,-1,2
 298 237 298 237 316 263 c 0,3,4
 352 315 352 315 412 394 c 0,5,6
 460 457 460 457 505 511 c 0,7,8
 547 561 547 561 583 599 c 1,9,-1
 583 710 l 1,10,-1
 52 710 l 1,11,-1
 52 575 l 1,12,-1
 371 575 l 1,13,14
 327 523 327 523 284 466 c 0,15,16
 244 413 244 413 193 340 c 0,17,18
 177 317 177 317 161.5 289.5 c 128,-1,19
 146 262 146 262 134 243 c 0,20,21
 49 113 49 113 32 81 c 1,22,-1
 36 0 l 1,23,-1
 169 0 l 1,0,1
EndSplineSet
EndChar

StartChar: Q
Encoding: 81 81 22
Width: 477
Flags: W
LayerCount: 2
Fore
SplineSet
411 707 m 1,0,-1
 411 553 l 1,1,-1
 193 553 l 1,2,-1
 193 707 l 1,3,-1
 411 707 l 1,0,-1
411 462 m 1,4,-1
 411 303 l 1,5,-1
 193 303 l 1,6,-1
 193 462 l 1,7,-1
 411 462 l 1,4,-1
82 710 m 1,8,-1
 242 710 l 1,9,-1
 242 0 l 1,10,-1
 82 0 l 1,11,-1
 82 710 l 1,8,-1
EndSplineSet
EndChar

StartChar: R
Encoding: 82 82 23
Width: 624
Flags: W
LayerCount: 2
Fore
SplineSet
459 0 m 1,0,-1
 585 0 l 1,1,-1
 586 95 l 1,2,-1
 387 404 l 1,3,-1
 265 304 l 1,4,-1
 459 0 l 1,0,-1
169 0 m 1,5,6
 178 15 178 15 228.5 108 c 128,-1,7
 279 201 279 201 300 237 c 0,8,9
 303 242 303 242 308.5 251 c 128,-1,10
 314 260 314 260 316 263 c 0,11,12
 352 315 352 315 412 394 c 0,13,14
 460 457 460 457 505 511 c 0,15,16
 547 561 547 561 583 599 c 1,17,-1
 583 710 l 1,18,-1
 52 710 l 1,19,-1
 52 575 l 1,20,-1
 371 575 l 1,21,22
 356 558 356 558 330 518 c 128,-1,23
 304 478 304 478 290 460 c 0,24,25
 272 436 272 436 200 333 c 0,26,27
 187 314 187 314 168 290 c 128,-1,28
 149 266 149 266 134 243 c 0,29,30
 66 139 66 139 37 85 c 1,31,-1
 36 0 l 1,32,-1
 169 0 l 1,5,6
EndSplineSet
EndChar

StartChar: S
Encoding: 83 83 24
Width: 581
Flags: W
LayerCount: 2
Fore
SplineSet
57 203 m 0,0,1
 57 240 57 240 73 278 c 0,2,3
 87 311 87 311 113 347 c 0,4,5
 137 380 137 380 168 411 c 0,6,7
 208 451 208 451 228 469 c 0,8,9
 233 474 233 474 244.5 484.5 c 128,-1,10
 256 495 256 495 262 501 c 0,11,12
 263 502 263 502 296 538 c 0,13,14
 298 540 298 540 315 558 c 128,-1,15
 332 576 332 576 337 582 c 0,16,17
 341 587 341 587 359 601.5 c 128,-1,18
 377 616 377 616 378 620 c 1,19,-1
 36 621 l 1,20,-1
 36 726 l 1,21,-1
 509 726 l 1,22,23
 511 710 511 710 511 697 c 2,24,-1
 511 673 l 2,25,26
 511 622 511 622 495 583 c 0,27,28
 477 538 477 538 454 506 c 0,29,30
 428 469 428 469 396 440 c 0,31,32
 386 431 386 431 375.5 421 c 128,-1,33
 365 411 365 411 352 398.5 c 128,-1,34
 339 386 339 386 332 379 c 0,35,36
 324 371 324 371 308.5 356 c 128,-1,37
 293 341 293 341 286 334 c 0,38,39
 265 312 265 312 248 293 c 0,40,41
 231 273 231 273 222 253 c 0,42,43
 220 249 220 249 214.5 239.5 c 128,-1,44
 209 230 209 230 205.5 222 c 128,-1,45
 202 214 202 214 201 208 c 0,46,47
 195 170 195 170 200 154.5 c 128,-1,48
 205 139 205 139 227 128 c 0,49,50
 246 118 246 118 301 118 c 0,51,52
 329 118 329 118 356 136 c 0,53,54
 364 141 364 141 378 148.5 c 128,-1,55
 392 156 392 156 398 160 c 0,56,57
 415 171 415 171 432 184 c 0,58,59
 447 196 447 196 454 203 c 1,60,-1
 544 191 l 1,61,-1
 529 96 l 1,62,63
 484 54 484 54 424 27 c 128,-1,64
 364 0 364 0 296 0 c 0,65,66
 230 0 230 0 188 14 c 0,67,68
 143 29 143 29 114 55 c 0,69,70
 84 82 84 82 71 118 c 0,71,72
 57 157 57 157 57 203 c 0,0,1
EndSplineSet
EndChar

StartChar: T
Encoding: 84 84 25
Width: 576
Flags: W
LayerCount: 2
Fore
SplineSet
72 572 m 1,0,-1
 72 710 l 1,1,-1
 546 710 l 1,2,-1
 546 0 l 1,3,-1
 386 0 l 1,4,-1
 386 572 l 1,5,-1
 72 572 l 1,0,-1
EndSplineSet
EndChar

StartChar: U
Encoding: 85 85 26
Width: 467
Flags: W
LayerCount: 2
Fore
SplineSet
434 208 m 128,-1,1
 434 160 434 160 419 122 c 128,-1,2
 404 84 404 84 378 58 c 128,-1,3
 352 32 352 32 315 17 c 0,4,5
 280 3 280 3 234 3 c 0,6,7
 189 3 189 3 154 17 c 0,8,9
 118 31 118 31 90 58 c 0,10,11
 65 81 65 81 49 122 c 0,12,13
 34 160 34 160 34 208 c 128,-1,14
 34 256 34 256 49 295 c 128,-1,15
 64 334 64 334 90 360 c 128,-1,16
 116 386 116 386 154 401 c 128,-1,17
 192 416 192 416 234 416 c 0,18,19
 278 416 278 416 315 401 c 0,20,21
 354 385 354 385 378 360 c 0,22,23
 405 331 405 331 419 295 c 0,24,0
 434 256 434 256 434 208 c 128,-1,1
301 208 m 0,25,26
 301 247 301 247 284 270 c 128,-1,27
 267 293 267 293 234 293 c 0,28,29
 203 293 203 293 185 270 c 0,30,31
 167 248 167 248 167 208 c 0,32,33
 167 171 167 171 185 149 c 0,34,35
 203 126 203 126 234 126 c 0,36,37
 267 126 267 126 284 149 c 128,-1,38
 301 172 301 172 301 208 c 0,25,26
EndSplineSet
EndChar

StartChar: V
Encoding: 86 86 27
Width: 477
Flags: W
LayerCount: 2
Fore
SplineSet
411 3 m 1,0,-1
 411 156 l 1,1,-1
 193 156 l 1,2,-1
 193 3 l 1,3,-1
 411 3 l 1,0,-1
411 247 m 1,4,-1
 411 407 l 1,5,-1
 193 407 l 1,6,-1
 193 247 l 1,7,-1
 411 247 l 1,4,-1
82 0 m 1,8,-1
 242 0 l 1,9,-1
 242 710 l 1,10,-1
 82 710 l 1,11,-1
 82 0 l 1,8,-1
EndSplineSet
EndChar

StartChar: W
Encoding: 87 87 28
Width: 723
Flags: W
LayerCount: 2
Fore
SplineSet
348 -14 m 0,0,1
 258 -14 258 -14 204 7 c 0,2,3
 149 28 149 28 114 65 c 0,4,5
 79 101 79 101 62 154 c 128,-1,6
 45 207 45 207 45 268 c 2,7,-1
 45 710 l 1,8,-1
 205 710 l 1,9,-1
 205 282 l 2,10,11
 205 241 205 241 215 208 c 0,12,13
 223 180 223 180 241 159 c 0,14,15
 257 140 257 140 282 132 c 0,16,17
 308 124 308 124 350 124 c 0,18,19
 384 124 384 124 423 133.5 c 128,-1,20
 462 143 462 143 479 160 c 0,21,22
 515 196 515 196 515 282 c 2,23,-1
 515 710 l 1,24,-1
 675 710 l 1,25,-1
 675 268 l 2,26,27
 675 206 675 206 657 154 c 0,28,29
 638 100 638 100 604 64 c 0,30,31
 568 27 568 27 513 6 c 0,32,33
 460 -14 460 -14 348 -14 c 0,0,1
EndSplineSet
EndChar

StartChar: X
Encoding: 88 88 29
Width: 808
Flags: W
LayerCount: 2
Fore
SplineSet
216 355 m 128,-1,1
 216 301 216 301 229 261 c 0,2,3
 243 218 243 218 266 189 c 0,4,5
 290 159 290 159 325 142 c 0,6,7
 358 126 358 126 404 126 c 0,8,9
 449 126 449 126 484 142 c 0,10,11
 518 157 518 157 543 189 c 0,12,13
 566 218 566 218 580 261 c 0,14,15
 593 301 593 301 593 355 c 0,16,17
 593 410 593 410 580 450 c 0,18,19
 566 495 566 495 543 523 c 0,20,21
 519 553 519 553 484 569 c 0,22,23
 447 586 447 586 404 586 c 128,-1,24
 361 586 361 586 325 569 c 0,25,26
 290 552 290 552 266 522 c 0,27,28
 243 494 243 494 229 449 c 0,29,0
 216 409 216 409 216 355 c 128,-1,1
758 355 m 0,30,31
 758 264 758 264 731 195 c 0,32,33
 705 128 705 128 656 79 c 0,34,35
 611 34 611 34 544 9 c 0,36,37
 482 -14 482 -14 404 -14 c 0,38,39
 329 -14 329 -14 267 9 c 0,40,41
 202 33 202 33 155 79 c 0,42,43
 106 127 106 127 79 195 c 0,44,45
 51 267 51 267 51 355 c 0,46,47
 51 446 51 446 80 516 c 0,48,49
 109 585 109 585 157 632 c 0,50,51
 204 677 204 677 270 702 c 0,52,53
 334 726 334 726 404 726 c 0,54,55
 478 726 478 726 542 702 c 0,56,57
 607 678 607 678 654 632 c 0,58,59
 703 584 703 584 730 516 c 0,60,61
 758 444 758 444 758 355 c 0,30,31
EndSplineSet
EndChar

StartChar: Y
Encoding: 89 89 30
Width: 754
Flags: W
LayerCount: 2
Fore
SplineSet
544 130 m 1,0,1
 536 129 536 129 518 129 c 0,2,3
 514 129 514 129 502 128.5 c 128,-1,4
 490 128 490 128 482 128 c 0,5,6
 364 128 364 128 305 188 c 0,7,8
 247 247 247 247 247 355 c 0,9,10
 247 468 247 468 302 524 c 0,11,12
 358 582 358 582 477 582 c 0,13,14
 482 582 482 582 493.5 581.5 c 128,-1,15
 505 581 505 581 511 581 c 0,16,17
 524 581 524 581 544 579 c 1,18,-1
 544 130 l 1,0,1
82 355 m 0,19,20
 82 265 82 265 111 195 c 0,21,22
 140 126 140 126 192 81 c 0,23,24
 245 35 245 35 321 13 c 0,25,26
 396 -9 396 -9 490 -9 c 0,27,28
 534 -9 534 -9 591 -6 c 0,29,30
 647 -3 647 -3 703 9 c 1,31,-1
 703 700 l 1,32,33
 644 711 644 711 588 714 c 0,34,35
 508 718 508 718 485 718 c 0,36,37
 394 718 394 718 320 697 c 0,38,39
 244 675 244 675 193 633 c 0,40,41
 139 589 139 589 111 520 c 0,42,43
 82 450 82 450 82 355 c 0,19,20
EndSplineSet
EndChar

StartChar: Z
Encoding: 90 90 31
Width: 624
Flags: W
LayerCount: 2
Fore
SplineSet
433 710 m 1,0,1
 425 696 425 696 364.5 584 c 128,-1,2
 304 472 304 472 286 446 c 0,3,4
 250 394 250 394 190 315 c 0,5,6
 142 252 142 252 97 198 c 0,7,8
 62 156 62 156 19 111 c 1,9,-1
 19 0 l 1,10,-1
 550 0 l 1,11,-1
 550 134 l 1,12,-1
 231 134 l 1,13,14
 275 186 275 186 318 243 c 0,15,16
 371 313 371 313 410 369 c 0,17,18
 426 392 426 392 440.5 420 c 128,-1,19
 455 448 455 448 468 467 c 0,20,21
 484 492 484 492 530.5 596 c 128,-1,22
 577 700 577 700 583 710 c 1,23,-1
 566 710 l 1,24,-1
 433 710 l 1,0,1
EndSplineSet
EndChar

StartChar: o
Encoding: 111 111 32
Width: 467
Flags: W
LayerCount: 2
Fore
SplineSet
33 697 m 5,0,-1
 147 697 l 5,1,-1
 147 43 l 5,2,-1
 33 43 l 5,3,-1
 33 697 l 5,0,-1
434 395 m 0,4,5
 434 347 434 347 419 309 c 128,-1,6
 404 271 404 271 378 245 c 0,7,8
 353 220 353 220 315 205 c 0,9,10
 278 190 278 190 234 190 c 0,11,12
 191 190 191 190 154 205 c 0,13,14
 116 220 116 220 90 245 c 0,15,16
 65 268 65 268 49 309 c 0,17,18
 34 347 34 347 34 395 c 0,19,20
 34 444 34 444 49 483 c 128,-1,21
 64 522 64 522 90 548 c 128,-1,22
 116 574 116 574 154 589 c 0,23,24
 189 603 189 603 234 603 c 0,25,26
 280 603 280 603 315 589 c 0,27,28
 354 573 354 573 378 548 c 0,29,30
 405 519 405 519 419 483 c 0,31,32
 434 444 434 444 434 395 c 0,4,5
301 395 m 0,33,34
 301 434 301 434 284 457 c 128,-1,35
 267 480 267 480 234 480 c 0,36,37
 203 480 203 480 185 457 c 128,-1,38
 167 434 167 434 167 395 c 0,39,40
 167 358 167 358 185 336 c 128,-1,41
 203 314 203 314 234 314 c 0,42,43
 268 314 268 314 284 336 c 0,44,45
 301 359 301 359 301 395 c 0,33,34
EndSplineSet
EndChar
